<?xml version="1.0" standalone="no"?>
<!DOCTYPE svg PUBLIC "-//W3C//DTD SVG 20010904//EN"
 "http://www.w3.org/TR/2001/REC-SVG-20010904/DTD/svg10.dtd">
<svg version="1.0" xmlns="http://www.w3.org/2000/svg"
 width="780.000000pt" height="394.000000pt" viewBox="0 0 780.000000 394.000000"
 preserveAspectRatio="xMidYMid meet">

<g transform="translate(0.000000,394.000000) scale(0.100000,-0.100000)"
fill="#000000" stroke="none">
<path d="M2572 2795 c-46 -25 -120 -70 -165 -101 -86 -59 -80 -57 -277 -84
-47 -6 -139 -22 -205 -35 -66 -13 -160 -31 -210 -40 -76 -13 -261 -55 -423
-97 -23 -6 -45 -15 -48 -19 -3 -5 -22 -9 -42 -9 -20 0 -64 -12 -97 -25 -33
-14 -69 -25 -80 -25 -12 0 -29 -15 -43 -36 l-23 -35 23 -29 c36 -45 75 -54
150 -35 35 9 72 21 83 25 11 5 52 22 90 38 126 54 366 129 450 142 28 4 79 17
115 28 36 12 73 22 83 22 9 0 17 5 17 10 0 6 -4 10 -10 10 -5 0 -10 7 -10 15
0 16 55 34 147 45 34 4 76 15 94 24 18 9 42 16 53 16 17 0 14 -4 -14 -21 -19
-12 -36 -25 -38 -30 -2 -5 -20 -9 -40 -10 -20 0 -68 -8 -107 -19 l-70 -18 46
-1 c25 -1 48 -3 51 -7 7 -6 -65 -73 -187 -174 -262 -217 -588 -582 -687 -769
-55 -104 -24 -196 59 -171 42 12 92 37 143 70 25 16 81 49 125 74 44 25 95 56
114 71 19 14 39 25 43 25 9 0 79 47 182 122 28 20 65 44 81 54 17 9 45 30 63
45 26 23 29 29 14 29 -10 0 -22 -4 -28 -9 -5 -4 -34 -22 -64 -38 -93 -51 -151
-84 -238 -134 -45 -27 -85 -49 -87 -49 -2 0 -42 -22 -87 -49 -105 -61 -225
-121 -231 -115 -2 3 7 26 20 53 42 82 379 441 400 428 13 -8 72 33 121 86 15
15 31 27 37 27 7 0 22 11 35 25 13 14 91 71 174 127 82 57 179 124 215 150 36
26 103 69 148 97 78 48 86 50 170 55 191 12 521 17 527 8 8 -13 -241 -245
-278 -259 -17 -6 -44 -12 -60 -12 -16 -1 -45 -5 -65 -10 -20 -5 -63 -15 -96
-22 -161 -32 -199 -51 -216 -108 -24 -81 16 -120 112 -107 35 5 49 4 44 -4 -4
-6 -104 -106 -222 -223 -230 -227 -346 -351 -498 -532 -27 -33 -56 -66 -63
-73 -29 -31 -62 -80 -62 -92 0 -7 103 90 229 216 287 287 359 356 442 425 180
147 227 187 269 225 56 52 99 74 142 74 37 0 169 -45 208 -70 14 -9 39 -22 57
-29 17 -7 39 -21 49 -32 9 -10 23 -19 30 -19 7 0 23 -9 36 -20 31 -27 97 -70
107 -70 4 0 18 -12 32 -26 13 -15 43 -35 65 -45 23 -11 44 -26 47 -34 4 -8 23
-25 44 -38 38 -24 58 -40 133 -104 20 -18 43 -33 50 -33 21 0 152 -103 161
-128 5 -12 24 -29 41 -37 18 -7 49 -30 68 -50 19 -20 60 -50 91 -65 31 -16 59
-36 62 -45 4 -8 12 -15 20 -15 7 0 33 -18 57 -40 48 -42 60 -48 60 -27 0 7
-24 31 -52 53 -98 76 -152 127 -293 271 -135 139 -178 173 -215 173 -26 0 -52
34 -45 61 4 20 -8 36 -87 105 -51 45 -124 103 -163 129 -38 27 -86 63 -106 81
-68 59 -197 140 -261 164 -16 5 -28 13 -28 18 0 13 95 82 113 82 9 0 26 4 39
9 13 5 75 17 138 26 63 9 133 21 155 27 90 24 404 53 418 39 13 -13 -45 -23
-85 -16 -21 4 -44 1 -63 -9 -17 -9 -36 -16 -42 -16 -7 0 -13 -4 -13 -10 0 -14
56 -12 120 5 38 10 77 13 125 9 44 -4 109 0 175 10 58 8 148 20 200 26 124 14
152 31 163 93 4 29 4 55 -3 67 -5 10 -10 31 -10 47 0 46 -14 59 -45 45 -17 -8
-32 -9 -43 -3 -29 15 -258 41 -452 51 -218 11 -465 29 -500 37 -31 7 -268 5
-500 -3 l-175 -7 19 22 c17 19 18 25 7 64 -32 105 -32 105 -149 42z m1436
-284 c15 -9 -70 -28 -268 -61 -69 -11 -143 -25 -165 -30 -66 -14 -301 -60
-310 -60 -25 0 60 90 114 119 53 29 146 39 381 40 129 0 241 -3 248 -8z"/>
<path d="M6165 2832 c-15 -10 -65 -90 -65 -102 0 -6 -19 -41 -42 -78 -23 -37
-62 -107 -88 -157 -25 -49 -72 -136 -102 -191 -53 -96 -86 -163 -128 -260 -16
-35 -64 -84 -84 -84 -4 0 -41 -21 -83 -46 -41 -26 -99 -59 -127 -74 -28 -15
-75 -41 -104 -58 -29 -18 -55 -32 -57 -32 -2 0 -26 -13 -53 -29 -26 -15 -68
-39 -93 -53 -24 -14 -62 -35 -84 -48 -102 -58 -121 -65 -190 -68 -38 -2 -82
-8 -96 -13 -28 -11 -119 -140 -119 -169 0 -11 19 -30 45 -47 25 -15 45 -31 45
-34 0 -4 13 -12 29 -19 34 -14 37 -13 161 69 47 31 112 72 145 91 33 19 68 40
77 45 118 68 338 220 362 248 20 24 86 70 93 64 3 -4 1 -19 -5 -34 -27 -67
-52 -182 -52 -238 0 -81 15 -101 81 -107 47 -5 56 -2 103 31 77 54 216 184
216 202 0 23 254 268 330 319 77 51 108 80 86 80 -22 0 -347 -203 -483 -302
-74 -54 -153 -101 -160 -94 -2 2 7 23 19 47 13 24 31 64 42 89 59 143 95 209
122 226 33 20 141 92 199 133 22 16 69 44 105 63 36 19 79 44 97 54 17 10 77
46 133 79 57 33 114 67 129 76 47 30 153 89 158 89 2 0 24 14 48 30 24 17 46
30 49 30 3 0 31 15 63 34 32 18 112 61 178 95 66 35 127 68 135 76 8 7 24 15
35 18 18 4 18 5 -3 6 -12 0 -30 -3 -40 -8 -9 -5 -28 -13 -42 -19 -14 -6 -74
-34 -134 -61 -59 -28 -110 -51 -113 -51 -7 0 -525 -260 -719 -361 -94 -49
-177 -89 -183 -89 -8 0 -6 11 7 33 11 17 36 61 55 97 81 153 195 335 224 357
23 18 10 52 -39 106 -40 45 -61 55 -83 39z"/>
<path d="M5360 2690 c-78 -10 -281 -80 -386 -133 -49 -25 -131 -72 -182 -106
-90 -59 -280 -205 -294 -225 -4 -6 -10 -8 -13 -4 -12 12 199 200 278 247 38
23 50 51 21 51 -14 0 -60 -24 -213 -112 -151 -86 -412 -359 -543 -568 -84
-135 -136 -285 -123 -360 7 -43 26 -66 91 -111 44 -30 49 -31 123 -27 119 8
322 94 639 272 45 25 85 46 89 46 3 0 20 11 38 24 17 14 49 34 71 46 53 30
274 183 301 209 12 12 39 33 60 47 53 35 256 237 308 306 61 80 76 112 77 167
0 55 -15 89 -77 170 -37 48 -51 59 -82 65 -46 7 -109 6 -183 -4z m117 -160
c22 0 36 -6 43 -20 15 -28 -27 -104 -100 -184 -58 -63 -284 -261 -385 -337
-292 -221 -433 -319 -570 -397 -262 -147 -438 -193 -447 -114 -6 46 17 146 46
205 25 53 127 167 148 167 16 0 235 169 242 186 3 9 6 27 6 41 0 32 85 117
108 108 10 -3 12 0 8 10 -3 8 -1 15 4 15 6 0 10 6 10 13 0 8 12 20 28 27 15 8
36 22 47 32 11 9 37 19 57 21 21 2 49 13 64 23 46 33 99 62 114 63 8 1 26 10
40 21 14 11 35 20 48 20 12 0 22 5 22 10 0 6 12 10 28 10 24 0 22 -2 -18 -22
-49 -24 -64 -38 -51 -51 4 -4 37 6 72 23 85 42 136 65 179 80 19 7 62 23 95
36 38 14 73 21 95 19 19 -3 49 -5 67 -5z m-357 -55 c-7 -8 -24 -14 -39 -14
-23 2 -24 2 -3 6 12 2 22 9 22 14 0 5 7 9 16 9 14 0 14 -3 4 -15z"/>
<path d="M2048 1883 c7 -3 16 -2 19 1 4 3 -2 6 -13 5 -11 0 -14 -3 -6 -6z"/>
</g>
</svg>
